<?xml version="1.0"?>
<svg width="570" height="670" xmlns="http://www.w3.org/2000/svg" xmlns:svg="http://www.w3.org/2000/svg">
 <title>Diagram Arsitektur 3 Layer</title>
 <desc>Arsitektur sistem 3 layer: FrontEnd, BackEnd, dan Database. Entity di BackEnd merepresentasikan Table di Database.</desc>
 <defs>
  <marker id="arrow" markerHeight="6" markerWidth="6" orient="auto-start-reverse" refX="8" refY="5" viewBox="0 0 10 10">
   <path d="m2,1l6,4l-6,4" fill="none" id="svg_1" stroke="context-stroke" stroke-linecap="round" stroke-linejoin="round" stroke-width="1.5"/>
  </marker>
  <mask id="imagine-text-gaps-2xqdm1" maskUnits="userSpaceOnUse">
   <rect fill="white" height="780" id="svg_2" width="680" x="0" y="0"/>
   <rect fill="black" height="21.94" id="svg_3" rx="2" width="70.27" x="76" y="35.03"/>
   <rect fill="black" height="21.94" id="svg_4" rx="2" width="59.27" x="210.05" y="53.03"/>
   <rect fill="black" height="21.94" id="svg_5" rx="2" width="77.13" x="328.86" y="53.03"/>
   <rect fill="black" height="21.94" id="svg_6" rx="2" width="44.1" x="463.24" y="53.03"/>
   <rect fill="black" height="21.94" id="svg_7" rx="2" width="66.98" x="76" y="171.03"/>
   <rect fill="black" height="21.94" id="svg_8" rx="2" width="161.37" x="269.15" y="205.03"/>
   <rect fill="black" height="21.94" id="svg_9" rx="2" width="126.52" x="104" y="299.03"/>
   <rect fill="black" height="21.94" id="svg_10" rx="2" width="49.29" x="107.54" y="335.03"/>
   <rect fill="black" height="21.94" id="svg_11" rx="2" width="118.65" x="225.68" y="335.03"/>
   <rect fill="black" height="21.94" id="svg_12" rx="2" width="58.64" x="215.81" y="405.03"/>
   <rect fill="black" height="21.94" id="svg_13" rx="2" width="61.47" x="334.4" y="405.03"/>
   <rect fill="black" height="21.94" id="svg_14" rx="2" width="61.47" x="454.56" y="405.03"/>
   <rect fill="black" height="21.94" id="svg_15" rx="2" width="71.72" x="76" y="541.03"/>
   <rect fill="black" height="21.94" id="svg_16" rx="2" width="44.01" x="89.68" y="579.03"/>
   <rect fill="black" height="21.94" id="svg_17" rx="2" width="51.16" x="219.08" y="579.03"/>
   <rect fill="black" height="21.94" id="svg_18" rx="2" width="53.99" x="337.67" y="579.03"/>
   <rect fill="black" height="21.94" id="svg_19" rx="2" width="53.99" x="457.82" y="579.03"/>
   <rect fill="black" height="19.11" id="svg_20" rx="2" width="93.03" x="-26.21" y="502.44"/>
  </mask>
 </defs>
 <!-- ===== LAYER 1: FrontEnd ===== -->
 <!-- Arrow: FrontEnd → BackEnd -->
 <!-- ===== LAYER 2: BackEnd ===== -->
 <!-- Sub-box: API / Service end-point -->
 <!-- Sub-box: Data Model - DTO -->
 <!-- Entity box -->
 <!-- Model W (Write) box -->
 <!-- Arrow: Model W → Entity -->
 <!-- Model 1 -->
 <!-- Model 2 -->
 <!-- Model 3 -->
 <!-- Arrow: BackEnd → Database -->
 <!-- ===== LAYER 3: Database ===== -->
 <!-- Table box -->
 <!-- View 1 -->
 <!-- View 2 -->
 <!-- View 3 -->
 <!-- Arrows: Model → View (vertical) -->
 <!-- View 2 → View 1 -->
 <!-- View 1 → Table -->
 <!-- View 3 → Table (routing bawah) -->
 <!-- ===== Entity == Table: garis putus-putus double-headed ===== -->
 <!-- Label -->
 <!-- Garis dari Entity ke Table -->
 <g class="layer">
  <title>Layer 1</title>
  <rect fill="rgb(238, 237, 254)" height="96" id="svg_22" rx="14" stroke="rgb(83, 74, 183)" stroke-width="0.5px" transform="matrix(0.883732 0 0 1.125 4.53104 -14.5)" width="600" x="15.11" y="20"/>
  <text dominant-baseline="central" fill="rgb(60, 52, 137)" font-family="&quot;Anthropic Sans&quot;, -apple-system, BlinkMacSystemFont, &quot;Segoe UI&quot;, sans-serif" font-size="14" font-weight="500" id="svg_23" stroke-width="1px" text-anchor="start" x="58" y="28">FrontEnd</text>
  <g fill="rgb(0, 0, 0)" font-family="&quot;Anthropic Sans&quot;, -apple-system, BlinkMacSystemFont, &quot;Segoe UI&quot;, sans-serif" font-size="16px" font-weight="400" id="svg_27" stroke-width="1px" text-anchor="start" transform="translate(0.666667 0) translate(0.666667 0) translate(-0.666667 0) translate(-0.666667 0) translate(-0.666667 0) translate(-0.666667 0) translate(-0.666667 0) translate(-0.666667 0) translate(-0.666667 0) translate(-0.666667 0) translate(-0.666667 0) translate(-0.666667 0) translate(-0.666667 0) translate(-0.666667 0) translate(-0.666667 0) translate(-0.666667 0) translate(-0.666667 0) translate(-0.666667 0) translate(-0.666667 0) translate(-0.666667 0) translate(-0.666667 0) translate(-0.666667 0) translate(-0.666667 0) translate(-0.666667 0) translate(-0.666667 0) translate(-0.666667 0) translate(-0.666667 0) translate(-0.666667 0) translate(-0.666667 0) translate(0.666667 0) translate(0.666667 0) translate(0.666667 0) translate(0.666667 0) translate(0.666667 0) translate(0.666667 0) translate(0.666667 0) translate(0.666667 0) translate(0.666667 0) translate(0.666667 0) translate(0.666667 0) translate(0.666667 0) translate(0.666667 0) translate(0.666667 0) translate(0.666667 0) translate(0.666667 0) translate(0.666667 0) translate(0.666667 0) translate(0.666667 0) translate(0.666667 0) translate(0.666667 0) translate(0.666667 0) translate(0.666667 0) translate(-1 0) translate(-1 0) translate(-1 0) translate(-1 0) translate(-1 0) translate(-1 0) translate(-1 0) translate(-1 0) translate(-1 0) translate(-1 0) translate(-1 0) translate(-1 0) translate(-1 0) translate(-1 0) translate(-1 0) translate(-1 0) translate(-1 0) translate(-1 0) translate(-1 0) translate(-1 0) translate(-1 0) translate(-1 0) matrix(1 0 0 1 -68 -29)">
   <rect fill="rgb(238, 237, 254)" height="40" id="svg_28" rx="8" stroke="rgb(83, 74, 183)" stroke-width="1px" width="115" x="310" y="44"/>
   <text dominant-baseline="central" fill="rgb(60, 52, 137)" font-family="&quot;Anthropic Sans&quot;, -apple-system, BlinkMacSystemFont, &quot;Segoe UI&quot;, sans-serif" font-size="14" font-weight="500" id="svg_29" stroke-width="1px" text-anchor="middle" x="367" y="62">Controller</text>
  </g>
  <g fill="rgb(0, 0, 0)" font-family="&quot;Anthropic Sans&quot;, -apple-system, BlinkMacSystemFont, &quot;Segoe UI&quot;, sans-serif" font-size="16px" font-weight="400" id="svg_30" stroke-width="1px" text-anchor="start" transform="translate(-0.666667 0) translate(-0.666667 0) translate(-0.666667 0) translate(-0.666667 0) translate(-0.666667 0) translate(-0.666667 0) translate(-0.666667 0) translate(-0.666667 0) translate(-0.666667 0) translate(-0.666667 0) translate(-0.666667 0) translate(-0.666667 0) translate(-0.666667 0) translate(-0.666667 0) translate(-0.666667 0) translate(-0.666667 0) translate(-0.666667 0) translate(-0.666667 0) translate(-0.666667 0) translate(-0.666667 0) translate(-0.666667 0) translate(-0.666667 0) translate(-0.666667 0) translate(-0.666667 0) translate(-0.666667 0) translate(-0.666667 0) translate(-0.666667 0) translate(-0.666667 0) translate(-0.666667 0) translate(-0.666667 0) translate(-0.666667 0) translate(-0.666667 0) translate(-0.666667 0) translate(-0.666667 0) translate(-0.666667 0) translate(-0.666667 0) translate(-0.666667 0) translate(-0.666667 0) translate(-0.666667 0) translate(-0.666667 0) translate(-0.666667 0) translate(-0.666667 0) translate(-0.666667 0) translate(-0.666667 0) translate(-0.666667 0) translate(-0.666667 0) translate(-0.666667 0) translate(-0.666667 0) translate(-0.666667 0) translate(-0.666667 0) translate(-0.666667 0) translate(-0.666667 0) translate(-0.666667 0) translate(-0.666667 0) translate(-0.666667 0) translate(-0.666667 0) translate(-0.666667 0) translate(-0.666667 0) translate(-0.666667 0) translate(-0.666667 0) translate(-0.666667 0) translate(-0.666667 0) translate(-0.666667 0) translate(-0.666667 0) translate(-0.666667 0) translate(-0.666667 0) translate(-0.666667 0) translate(-0.666667 0) translate(-0.666667 0) translate(-0.666667 0) translate(-0.666667 0) translate(-0.666667 0) translate(-0.666667 0) translate(-0.666667 0) translate(-0.666667 0) translate(-0.666667 0) translate(-0.666667 0) translate(-0.666667 0) translate(-0.666667 0) translate(-0.666667 0) translate(-0.666667 0) translate(-0.666667 0) translate(-0.666667 0) translate(-0.666667 0) translate(-0.666667 0) translate(-0.666667 0) translate(-0.666667 0) translate(-0.666667 0) translate(-0.666667 0) translate(-0.666667 0) translate(-0.666667 0) translate(-0.666667 0) translate(-0.666667 0) translate(-0.666667 0) translate(-0.666667 0) translate(-0.666667 0) translate(-0.666667 0) translate(-0.666667 0) translate(-0.666667 0) translate(-0.666667 0) translate(-0.666667 0) translate(-0.666667 0) translate(-0.666667 0) translate(-0.666667 0) translate(-0.666667 0) translate(-0.666667 0) translate(-0.666667 0) translate(-0.666667 0) translate(-0.666667 0) translate(-0.666667 0) translate(-0.666667 0) translate(-0.666667 0) translate(-0.666667 0) translate(-0.666667 0) translate(-0.666667 0) translate(-0.666667 0) translate(-0.666667 0) translate(-0.666667 0) translate(-0.666667 0) translate(-0.666667 0) translate(-0.666667 0) translate(-0.666667 0) translate(-0.666667 0) translate(-0.666667 0) translate(-0.666667 0) translate(-0.666667 0) translate(-0.666667 0) translate(-0.666667 0) translate(-0.666667 0) translate(-0.666667 0) translate(-0.666667 0) translate(-0.666667 0) translate(-0.666667 0) translate(-0.666667 0) translate(-0.666667 0) translate(-0.666667 0) translate(-0.666667 0) translate(-0.666667 0) translate(-0.666667 0) translate(-0.666667 0) translate(-0.666667 0) translate(-0.666667 0) translate(-0.666667 0) translate(-0.666667 0) translate(-0.666667 0) translate(-0.666667 0) translate(-0.666667 0) translate(-0.666667 0) translate(-0.666667 0) translate(-0.666667 0) translate(-0.666667 0) translate(-0.666667 0) translate(-0.666667 0) translate(-0.666667 0) translate(-0.666667 0) translate(-0.666667 0) translate(-0.666667 0) translate(-0.666667 0) translate(-0.666667 0) translate(-0.666667 0) translate(-0.666667 0) translate(-0.666667 0) translate(-0.666667 0) translate(-0.666667 0) translate(-0.666667 0) translate(-0.666667 0) translate(-0.666667 0) translate(-0.666667 0) translate(-0.666667 0) translate(-0.666667 0) translate(-0.666667 0) translate(-0.666667 0) translate(-0.666667 0) translate(-0.666667 0) translate(-0.666667 0) translate(-0.666667 0) translate(-0.666667 0) translate(-0.666667 0) translate(-0.666667 0) translate(-0.666667 0) translate(-0.666667 0) translate(-0.666667 0) translate(-0.666667 0) translate(-0.666667 0) translate(-0.666667 0) translate(-0.666667 0) translate(-0.666667 0) translate(-0.666667 0) translate(-0.666667 0) translate(-0.666667 0) translate(-0.666667 0) translate(-0.666667 0) translate(-0.666667 0) translate(-0.666667 0) translate(-0.666667 0) translate(-0.666667 0) translate(-0.666667 0) translate(-0.666667 0) translate(-0.666667 0) translate(-0.666667 0) translate(-0.666667 0) translate(-0.666667 0) translate(-0.666667 0) translate(-0.666667 0) translate(-0.666667 0) translate(-0.666667 0) translate(-0.666667 0) translate(-0.666667 0) translate(-0.666667 0) translate(-0.666667 0) translate(-0.666667 0) translate(-0.666667 0) translate(-0.666667 0) translate(-0.666667 0) translate(-0.666667 0) translate(-0.666667 0) translate(-0.666667 0) translate(-0.666667 0) translate(-0.666667 0) translate(-0.666667 0) translate(-0.666667 0) translate(-0.666667 0) translate(-0.666667 0) translate(-0.666667 0) translate(-0.666667 0) translate(-0.666667 0) translate(-0.666667 0) translate(-0.666667 0) translate(-0.666667 0) translate(-0.666667 0) translate(-0.666667 0) translate(-0.666667 0) translate(-0.666667 0) translate(-0.666667 0) translate(-0.666667 0) translate(-0.666667 0) translate(-0.666667 0) translate(-0.666667 0) translate(-0.666667 0) translate(-0.666667 0) translate(-0.666667 0) translate(-0.666667 0) translate(-0.666667 0) translate(-0.666667 0) translate(-0.666667 0) translate(-0.666667 0) translate(-0.666667 0) translate(-0.666667 0) translate(-0.666667 0) translate(-0.666667 0) translate(-0.666667 0) translate(-0.666667 0) translate(-0.666667 0) translate(-0.666667 0) translate(-0.666667 0) translate(-0.666667 0) translate(-0.666667 0) translate(-0.666667 0) translate(-0.666667 0) translate(-0.666667 0) translate(-0.666667 0) translate(-0.666667 0) translate(-0.666667 0) translate(-0.666667 0) translate(-0.666667 0) translate(-0.666667 0) translate(-0.666667 0) translate(-0.666667 0) translate(-0.666667 0) translate(-0.666667 0) translate(-0.666667 0) translate(-0.666667 0) translate(-0.666667 0) translate(-0.666667 0) translate(-0.666667 0) translate(-0.666667 0) translate(-0.666667 0) translate(-0.666667 0) translate(-0.666667 0) translate(-0.666667 0) translate(-0.666667 0) translate(-0.666667 0) translate(-0.666667 0) translate(-0.666667 0) translate(-0.666667 0) translate(-0.666667 0) translate(-0.666667 0) translate(-0.666667 0) translate(-0.666667 0) translate(-0.666667 0) translate(-0.666667 0) translate(-0.666667 0) translate(-0.666667 0) translate(-0.666667 0) translate(-0.666667 0) translate(-0.666667 0) translate(-0.666667 0) translate(-0.666667 0) translate(-0.666667 0) translate(-0.666667 0) translate(-0.666667 0) translate(-0.666667 0) translate(-0.666667 0) translate(-0.666667 0) translate(-0.666667 0) translate(-0.666667 0) translate(-0.666667 0) translate(-0.666667 0) translate(-0.666667 0) translate(-0.666667 0) translate(-0.666667 0) translate(-0.666667 0) translate(-0.666667 0) translate(-0.666667 0) translate(-0.666667 0) translate(-0.666667 0) translate(-0.666667 0) translate(-0.666667 0) translate(-0.666667 0) translate(-0.666667 0) translate(-0.666667 0) translate(-0.666667 0) translate(-0.666667 0) translate(-0.666667 0) translate(-0.666667 0) translate(-0.666667 0) translate(-0.666667 0) translate(-0.666667 0) translate(-0.666667 0) translate(-0.666667 0) translate(-0.666667 0) translate(-0.666667 0) translate(-0.666667 0) translate(-0.666667 0) translate(-0.666667 0) translate(-0.666667 0) translate(-0.666667 0) translate(-0.666667 0) translate(-0.666667 0) translate(-0.666667 0) translate(-0.666667 0) translate(-0.666667 0) translate(-0.666667 0) translate(-0.666667 0) translate(-0.666667 0) translate(-0.666667 0) translate(-0.666667 0) translate(-0.666667 0) translate(-0.666667 0) translate(-0.666667 0) translate(-0.666667 0) translate(-0.666667 0) translate(-0.666667 0) translate(-0.666667 0) translate(-0.526316 0) translate(-0.526316 0) translate(-0.526316 0) translate(-0.526316 0) translate(-0.526316 0) translate(-0.526316 0) translate(-0.526316 0) translate(-0.526316 0) translate(-0.526316 0) translate(-0.526316 0) translate(-0.526316 0) translate(-0.526316 0) translate(-0.526316 0) translate(-0.526316 0) translate(-0.526316 0) translate(-0.526316 0) translate(-0.526316 0) translate(-0.526316 0) translate(-0.526316 0) translate(-0.526316 0) translate(-0.526316 0) translate(-0.526316 0) translate(-0.526316 0) translate(-0.526316 0) translate(-0.526316 0) translate(-0.526316 0) translate(-0.526316 0) translate(-0.526316 0) translate(-0.526316 0) translate(-0.526316 0) translate(-0.526316 0) translate(-0.526316 0) translate(-0.526316 0) translate(-0.526316 0) translate(-0.526316 0) translate(-0.526316 0) translate(-0.526316 0) translate(-0.526316 0) translate(-0.526316 0) translate(-0.526316 0) translate(-0.526316 0) translate(-0.526316 0) translate(-0.526316 0) translate(-0.526316 0) translate(-0.526316 0) translate(-0.526316 0) translate(-0.526316 0) translate(-0.526316 0) translate(-0.526316 0) translate(-0.526316 0) translate(-0.526316 0) translate(-0.526316 0) translate(-0.526316 0) translate(-0.526316 0) translate(-0.526316 0) translate(-0.526316 0) translate(-0.526316 0) translate(-0.526316 0) translate(-0.526316 0) translate(-0.526316 0) translate(-0.526316 0) translate(-0.526316 0) translate(-0.526316 0) translate(-0.526316 0) translate(-0.526316 0) translate(-0.526316 0) translate(-0.526316 0) translate(-0.526316 0) translate(-1 0) translate(-1 0) translate(-1 0) translate(-1 0) translate(-1 0) translate(-1 0) translate(-1 0) translate(-1 0) translate(-1 0) translate(-1 0) translate(-1 0) translate(-1 0) translate(-1 0) translate(-1 0) translate(-1 0) translate(-1 0) translate(-1 0) translate(-1 0) translate(-1 0) translate(-1 0) translate(-1 0) translate(-1 0) matrix(1 0 0 1 -20 -28)">
   <rect fill="rgb(238, 237, 254)" height="40" id="svg_31" rx="8" stroke="rgb(83, 74, 183)" stroke-width="1px" width="80" x="445" y="44"/>
   <text dominant-baseline="central" fill="rgb(60, 52, 137)" font-family="&quot;Anthropic Sans&quot;, -apple-system, BlinkMacSystemFont, &quot;Segoe UI&quot;, sans-serif" font-size="14" font-weight="500" id="svg_32" stroke-width="1px" text-anchor="middle" x="485" y="62">View</text>
  </g>
  <g fill="rgb(0, 0, 0)" font-family="&quot;Anthropic Sans&quot;, -apple-system, BlinkMacSystemFont, &quot;Segoe UI&quot;, sans-serif" font-size="16px" font-weight="400" id="svg_34" stroke-width="1px" text-anchor="start" transform="translate(-1 0) translate(-1 0) translate(-1 0) translate(-1 0) translate(-1 0) translate(-1 0) translate(-1 0) translate(-1 0) translate(-1 0) translate(-1 0) translate(-1 0) translate(-1 0) translate(-1 0) translate(-1 0) translate(-1 0) translate(-1 0) translate(-1 0) translate(-1 0) translate(-1 0) translate(-1 0) translate(-1 0) translate(-1 0) matrix(1 0 0 1 0 0) matrix(0.888333 0 0 1 4.46667 0)">
   <rect fill="rgb(230, 241, 251)" height="330" id="svg_35" rx="14" stroke="rgb(24, 95, 165)" stroke-width="0.5px" width="600" x="40" y="156"/>
   <text dominant-baseline="central" fill="rgb(12, 68, 124)" font-family="&quot;Anthropic Sans&quot;, -apple-system, BlinkMacSystemFont, &quot;Segoe UI&quot;, sans-serif" font-size="14" font-weight="500" id="svg_36" stroke-width="1px" text-anchor="start" x="80" y="177">BackEnd</text>
  </g>
  <g fill="rgb(0, 0, 0)" font-family="&quot;Anthropic Sans&quot;, -apple-system, BlinkMacSystemFont, &quot;Segoe UI&quot;, sans-serif" font-size="16px" font-weight="400" id="svg_37" stroke-width="1px" text-anchor="start" transform="translate(-1 0) translate(-1 0) translate(-1 0) translate(-1 0) translate(-1 0) translate(-1 0) translate(-1 0) translate(-1 0) translate(-1 0) translate(-1 0) translate(-1 0) translate(-1 0) translate(-1 0) translate(-1 0) translate(-1 0) translate(-1 0) translate(-1 0) translate(-1 0) translate(-1 0) translate(-1 0) translate(-1 0) translate(-1 0) matrix(1 0 0 1 0 0) matrix(1 0 0 1 0 0) translate(65 196) scale(0.850877 1) translate(-65 -196)">
   <rect fill="rgb(230, 241, 251)" height="70" id="svg_38" rx="10" stroke="rgb(24, 95, 165)" stroke-width="1px" width="570" x="65" y="196"/>
   <text dominant-baseline="central" fill="rgb(12, 68, 124)" font-family="&quot;Anthropic Sans&quot;, -apple-system, BlinkMacSystemFont, &quot;Segoe UI&quot;, sans-serif" font-size="14" font-weight="500" id="svg_39" stroke-width="1px" text-anchor="middle" x="350" y="228">API / Service end-point</text>
  </g>
  <g fill="rgb(0, 0, 0)" font-family="&quot;Anthropic Sans&quot;, -apple-system, BlinkMacSystemFont, &quot;Segoe UI&quot;, sans-serif" font-size="16px" font-weight="400" id="svg_40" stroke-width="1px" text-anchor="start" transform="translate(-1 0) translate(-1 0) translate(-1 0) translate(-1 0) translate(-1 0) translate(-1 0) translate(-1 0) translate(-1 0) translate(-1 0) translate(-1 0) translate(-1 0) translate(-1 0) translate(-1 0) translate(-1 0) translate(-1 0) translate(-1 0) translate(-1 0) translate(-1 0) translate(-1 0) translate(-1 0) translate(-1 0) translate(-1 0) matrix(1 0 0 1 0 0) translate(65 286) scale(0.85614 1) translate(-65 -286)">
   <rect fill="rgb(250, 238, 218)" height="184" id="svg_41" rx="10" stroke="rgb(133, 79, 11)" stroke-width="0.5px" width="570" x="65" y="286"/>
   <text dominant-baseline="central" fill="rgb(99, 56, 6)" font-family="&quot;Anthropic Sans&quot;, -apple-system, BlinkMacSystemFont, &quot;Segoe UI&quot;, sans-serif" font-size="14px" font-weight="500" id="svg_42" stroke-width="1px" text-anchor="start" x="108" y="310">Data Model – DTO</text>
  </g>
  <g fill="rgb(0, 0, 0)" font-family="&quot;Anthropic Sans&quot;, -apple-system, BlinkMacSystemFont, &quot;Segoe UI&quot;, sans-serif" font-size="16px" font-weight="400" id="svg_43" stroke-width="1px" text-anchor="start" transform="translate(-1 0) translate(-1 0) translate(-1 0) translate(-1 0) translate(-1 0) translate(-1 0) translate(-1 0) translate(-1 0) translate(-1 0) translate(-1 0) translate(-1 0) translate(-1 0) translate(-1 0) translate(-1 0) translate(-1 0) translate(-1 0) translate(-1 0) translate(-1 0) translate(-1 0) translate(-1 0) translate(-1 0) translate(-1 0)">
   <rect fill="rgb(250, 238, 218)" height="40" id="svg_44" rx="8" stroke="rgb(133, 79, 11)" stroke-width="1px" width="100" x="82" y="326"/>
   <text dominant-baseline="central" fill="rgb(99, 56, 6)" font-family="&quot;Anthropic Sans&quot;, -apple-system, BlinkMacSystemFont, &quot;Segoe UI&quot;, sans-serif" font-size="14px" font-weight="500" id="svg_45" stroke-width="1px" text-anchor="middle" x="132" y="346">Entity</text>
  </g>
  <g fill="rgb(0, 0, 0)" font-family="&quot;Anthropic Sans&quot;, -apple-system, BlinkMacSystemFont, &quot;Segoe UI&quot;, sans-serif" font-size="16px" font-weight="400" id="svg_46" stroke-width="1px" text-anchor="start" transform="translate(-1 0) translate(-1 0) translate(-1 0) translate(-1 0) translate(-1 0) translate(-1 0) translate(-1 0) translate(-1 0) translate(-1 0) translate(-1 0) translate(-1 0) translate(-1 0) translate(-1 0) translate(-1 0) translate(-1 0) translate(-1 0) translate(-1 0) translate(-1 0) translate(-1 0) translate(-1 0) translate(-1 0) translate(-1 0)">
   <rect fill="rgb(250, 238, 218)" height="40" id="svg_47" rx="8" stroke="rgb(133, 79, 11)" stroke-width="1px" width="150" x="210" y="326"/>
   <text dominant-baseline="central" fill="rgb(99, 56, 6)" font-family="&quot;Anthropic Sans&quot;, -apple-system, BlinkMacSystemFont, &quot;Segoe UI&quot;, sans-serif" font-size="14px" font-weight="500" id="svg_48" stroke-width="1px" text-anchor="middle" x="285" y="346">Model W (Write)</text>
  </g>
  <line fill="rgb(0, 0, 0)" id="svg_49" marker-end="url(#arrow)" stroke="rgb(61, 61, 58)" stroke-width="1.5px" x1="188" x2="162" y1="346" y2="346"/>
  <g fill="rgb(0, 0, 0)" font-family="&quot;Anthropic Sans&quot;, -apple-system, BlinkMacSystemFont, &quot;Segoe UI&quot;, sans-serif" font-size="16px" font-weight="400" id="svg_50" stroke-width="1px" text-anchor="start" transform="translate(-1 0) translate(-1 0) translate(-1 0) translate(-1 0) translate(-1 0) translate(-1 0) translate(-1 0) translate(-1 0) translate(-1 0) translate(-1 0) translate(-1 0) translate(-1 0) translate(-1 0) translate(-1 0) translate(-1 0) translate(-1 0) translate(-1 0) translate(-1 0) translate(-1 0) translate(-1 0) translate(-1 0) translate(-1 0)">
   <rect fill="rgb(250, 238, 218)" height="40" id="svg_51" rx="8" stroke="rgb(133, 79, 11)" stroke-width="1px" width="90" x="200" y="396"/>
   <text dominant-baseline="central" fill="rgb(99, 56, 6)" font-family="&quot;Anthropic Sans&quot;, -apple-system, BlinkMacSystemFont, &quot;Segoe UI&quot;, sans-serif" font-size="14px" font-weight="500" id="svg_52" stroke-width="1px" text-anchor="middle" x="245" y="416">Model 1</text>
  </g>
  <g fill="rgb(0, 0, 0)" font-family="&quot;Anthropic Sans&quot;, -apple-system, BlinkMacSystemFont, &quot;Segoe UI&quot;, sans-serif" font-size="16px" font-weight="400" id="svg_53" stroke-width="1px" text-anchor="start" transform="translate(-1 0) translate(-1 0) translate(-1 0) translate(-1 0) translate(-1 0) translate(-1 0) translate(-1 0) translate(-1 0) translate(-1 0) translate(-1 0) translate(-1 0) translate(-1 0) translate(-1 0) translate(-1 0) translate(-1 0) translate(-1 0) translate(-1 0) translate(-1 0) translate(-1 0) translate(-1 0) translate(-1 0) translate(-1 0)">
   <rect fill="rgb(250, 238, 218)" height="40" id="svg_54" rx="8" stroke="rgb(133, 79, 11)" stroke-width="1px" width="90" x="320" y="396"/>
   <text dominant-baseline="central" fill="rgb(99, 56, 6)" font-family="&quot;Anthropic Sans&quot;, -apple-system, BlinkMacSystemFont, &quot;Segoe UI&quot;, sans-serif" font-size="14px" font-weight="500" id="svg_55" stroke-width="1px" text-anchor="middle" x="365" y="416">Model 2</text>
  </g>
  <g fill="rgb(0, 0, 0)" font-family="&quot;Anthropic Sans&quot;, -apple-system, BlinkMacSystemFont, &quot;Segoe UI&quot;, sans-serif" font-size="16px" font-weight="400" id="svg_56" stroke-width="1px" text-anchor="start" transform="translate(-1 0) translate(-1 0) translate(-1 0) translate(-1 0) translate(-1 0) translate(-1 0) translate(-1 0) translate(-1 0) translate(-1 0) translate(-1 0) translate(-1 0) translate(-1 0) translate(-1 0) translate(-1 0) translate(-1 0) translate(-1 0) translate(-1 0) translate(-1 0) translate(-1 0) translate(-1 0) translate(-1 0) translate(-1 0)">
   <rect fill="rgb(250, 238, 218)" height="40" id="svg_57" rx="8" stroke="rgb(133, 79, 11)" stroke-width="1px" width="90" x="440" y="396"/>
   <text dominant-baseline="central" fill="rgb(99, 56, 6)" font-family="&quot;Anthropic Sans&quot;, -apple-system, BlinkMacSystemFont, &quot;Segoe UI&quot;, sans-serif" font-size="14px" font-weight="500" id="svg_58" stroke-width="1px" text-anchor="middle" x="485" y="416">Model 3</text>
  </g>
  <g fill="rgb(0, 0, 0)" font-family="&quot;Anthropic Sans&quot;, -apple-system, BlinkMacSystemFont, &quot;Segoe UI&quot;, sans-serif" font-size="16px" font-weight="400" id="svg_60" stroke-width="1px" text-anchor="start" transform="translate(-1 0) translate(-1 0) translate(-1 0) translate(-1 0) translate(-1 0) translate(-1 0) translate(-1 0) translate(-1 0) translate(-1 0) translate(-1 0) translate(-1 0) translate(-1 0) translate(-1 0) translate(-1 0) translate(-1 0) translate(-1 0) translate(-1 0) translate(-1 0) translate(-1 0) translate(-1 0) translate(-1 0) translate(-1 0) matrix(0.891667 0 0 1 4.33333 0)">
   <rect fill="rgb(225, 245, 238)" height="230" id="svg_61" rx="14" stroke="rgb(15, 110, 86)" stroke-width="0.5px" transform="matrix(1 0 0 0.591304 0 214.974)" width="600" x="40" y="526"/>
   <text dominant-baseline="central" fill="rgb(8, 80, 65)" font-family="&quot;Anthropic Sans&quot;, -apple-system, BlinkMacSystemFont, &quot;Segoe UI&quot;, sans-serif" font-size="14px" font-weight="500" id="svg_62" stroke-width="1px" text-anchor="start" x="80" y="552">Database</text>
  </g>
  <g fill="rgb(0, 0, 0)" font-family="&quot;Anthropic Sans&quot;, -apple-system, BlinkMacSystemFont, &quot;Segoe UI&quot;, sans-serif" font-size="16px" font-weight="400" id="svg_63" stroke-width="1px" text-anchor="start" transform="translate(-1 0) translate(-1 0) translate(-1 0) translate(-1 0) translate(-1 0) translate(-1 0) translate(-1 0) translate(-1 0) translate(-1 0) translate(-1 0) translate(-1 0) translate(-1 0) translate(-1 0) translate(-1 0) translate(-1 0) translate(-1 0) translate(-1 0) translate(-1 0) translate(-1 0) translate(-1 0) translate(-1 0) translate(-1 0)">
   <rect fill="rgb(225, 245, 238)" height="40" id="svg_64" rx="8" stroke="rgb(15, 110, 86)" stroke-width="1px" width="100" x="62" y="570"/>
   <text dominant-baseline="central" fill="rgb(8, 80, 65)" font-family="&quot;Anthropic Sans&quot;, -apple-system, BlinkMacSystemFont, &quot;Segoe UI&quot;, sans-serif" font-size="14px" font-weight="500" id="svg_65" stroke-width="1px" text-anchor="middle" x="112" y="590">Table</text>
  </g>
  <g fill="rgb(0, 0, 0)" font-family="&quot;Anthropic Sans&quot;, -apple-system, BlinkMacSystemFont, &quot;Segoe UI&quot;, sans-serif" font-size="16px" font-weight="400" id="svg_66" stroke-width="1px" text-anchor="start" transform="translate(-1 0) translate(-1 0) translate(-1 0) translate(-1 0) translate(-1 0) translate(-1 0) translate(-1 0) translate(-1 0) translate(-1 0) translate(-1 0) translate(-1 0) translate(-1 0) translate(-1 0) translate(-1 0) translate(-1 0) translate(-1 0) translate(-1 0) translate(-1 0) translate(-1 0) translate(-1 0) translate(-1 0) translate(-1 0)">
   <rect fill="rgb(225, 245, 238)" height="40" id="svg_67" rx="8" stroke="rgb(15, 110, 86)" stroke-width="1px" width="90" x="200" y="570"/>
   <text dominant-baseline="central" fill="rgb(8, 80, 65)" font-family="&quot;Anthropic Sans&quot;, -apple-system, BlinkMacSystemFont, &quot;Segoe UI&quot;, sans-serif" font-size="14px" font-weight="500" id="svg_68" stroke-width="1px" text-anchor="middle" x="245" y="590">View 1</text>
  </g>
  <g fill="rgb(0, 0, 0)" font-family="&quot;Anthropic Sans&quot;, -apple-system, BlinkMacSystemFont, &quot;Segoe UI&quot;, sans-serif" font-size="16px" font-weight="400" id="svg_69" stroke-width="1px" text-anchor="start" transform="translate(-1 0) translate(-1 0) translate(-1 0) translate(-1 0) translate(-1 0) translate(-1 0) translate(-1 0) translate(-1 0) translate(-1 0) translate(-1 0) translate(-1 0) translate(-1 0) translate(-1 0) translate(-1 0) translate(-1 0) translate(-1 0) translate(-1 0) translate(-1 0) translate(-1 0) translate(-1 0) translate(-1 0) translate(-1 0)">
   <rect fill="rgb(225, 245, 238)" height="40" id="svg_70" rx="8" stroke="rgb(15, 110, 86)" stroke-width="1px" width="90" x="320" y="570"/>
   <text dominant-baseline="central" fill="rgb(8, 80, 65)" font-family="&quot;Anthropic Sans&quot;, -apple-system, BlinkMacSystemFont, &quot;Segoe UI&quot;, sans-serif" font-size="14px" font-weight="500" id="svg_71" stroke-width="1px" text-anchor="middle" x="365" y="590">View 2</text>
  </g>
  <g fill="rgb(0, 0, 0)" font-family="&quot;Anthropic Sans&quot;, -apple-system, BlinkMacSystemFont, &quot;Segoe UI&quot;, sans-serif" font-size="16px" font-weight="400" id="svg_72" stroke-width="1px" text-anchor="start" transform="translate(-1 0) translate(-1 0) translate(-1 0) translate(-1 0) translate(-1 0) translate(-1 0) translate(-1 0) translate(-1 0) translate(-1 0) translate(-1 0) translate(-1 0) translate(-1 0) translate(-1 0) translate(-1 0) translate(-1 0) translate(-1 0) translate(-1 0) translate(-1 0) translate(-1 0) translate(-1 0) translate(-1 0) translate(-1 0)">
   <rect fill="rgb(225, 245, 238)" height="40" id="svg_73" rx="8" stroke="rgb(15, 110, 86)" stroke-width="1px" width="90" x="440" y="570"/>
   <text dominant-baseline="central" fill="rgb(8, 80, 65)" font-family="&quot;Anthropic Sans&quot;, -apple-system, BlinkMacSystemFont, &quot;Segoe UI&quot;, sans-serif" font-size="14px" font-weight="500" id="svg_74" stroke-width="1px" text-anchor="middle" x="485" y="590">View 3</text>
  </g>
  <line fill="rgb(0, 0, 0)" id="svg_75" marker-end="url(#arrow)" stroke="rgb(61, 61, 58)" stroke-width="1.5px" x1="223" x2="223" y1="436" y2="568"/>
  <line fill="rgb(0, 0, 0)" id="svg_76" marker-end="url(#arrow)" stroke="rgb(61, 61, 58)" stroke-width="1.5px" x1="343" x2="343" y1="436" y2="568"/>
  <line fill="rgb(0, 0, 0)" id="svg_77" marker-end="url(#arrow)" stroke="rgb(61, 61, 58)" stroke-width="1.5px" x1="463" x2="463" y1="436" y2="568"/>
  <line fill="rgb(0, 0, 0)" id="svg_78" marker-end="url(#arrow)" stroke="rgb(61, 61, 58)" stroke-width="1.5px" x1="298" x2="270" y1="590" y2="590"/>
  <line fill="rgb(0, 0, 0)" id="svg_79" marker-end="url(#arrow)" stroke="rgb(61, 61, 58)" stroke-width="1.5px" x1="178" x2="142" y1="590" y2="590"/>
  <path d="m463,612l0,36l-373,0l0,-36" fill="none" id="svg_80" marker-end="url(#arrow)" stroke="rgb(61, 61, 58)" stroke-width="1.5px"/>
  <line fill="rgb(0, 0, 0)" id="svg_82" marker-end="url(#arrow)" marker-start="url(#arrow)" mask="url(#imagine-text-gaps-2xqdm1)" stroke="rgb(226, 75, 74)" stroke-dasharray="6px, 3px" stroke-width="1.5px" x1="90" x2="90" y1="366" y2="568"/>
  <g fill="rgb(0, 0, 0)" font-family="&quot;Anthropic Sans&quot;, -apple-system, BlinkMacSystemFont, &quot;Segoe UI&quot;, sans-serif" font-size="16px" font-weight="400" id="svg_87" stroke-width="1px" text-anchor="start" transform="translate(-1 0) translate(-1 0) translate(-1 0) translate(-1 0) translate(-1 0) translate(-1 0) translate(-1 0) translate(-1 0) translate(-1 0) translate(-1 0) translate(-1 0) translate(-1 0) translate(-1 0) translate(-1 0) translate(-1 0) translate(-1 0) translate(-1 0) translate(-1 0) translate(-1 0) translate(-1 0) translate(-1 0) translate(-1 0) matrix(1 0 0 1 373.5 101.5)"/>
  <g id="svg_104">
   <g fill="rgb(0, 0, 0)" font-family="&quot;Anthropic Sans&quot;, -apple-system, BlinkMacSystemFont, &quot;Segoe UI&quot;, sans-serif" font-size="16px" font-weight="400" id="svg_24" stroke-width="1px" text-anchor="start" transform="translate(-0.526316 0) translate(-0.526316 0) translate(-0.526316 0) translate(-0.526316 0) translate(-0.526316 0) translate(-0.526316 0) translate(-0.526316 0) translate(-0.526316 0) translate(-0.526316 0) translate(-0.526316 0) translate(-0.526316 0) translate(-0.526316 0) translate(-0.526316 0) translate(-0.526316 0) translate(-0.526316 0) translate(-0.526316 0) translate(-0.526316 0) translate(-0.526316 0) translate(-0.526316 0) translate(-0.526316 0) translate(-0.526316 0) translate(-0.526316 0) translate(-0.526316 0) translate(-0.526316 0) translate(-0.526316 0) translate(-0.526316 0) translate(-0.526316 0) translate(-0.526316 0) translate(-0.526316 0) translate(-0.526316 0) translate(-0.526316 0) translate(-0.526316 0) translate(-0.526316 0) translate(-0.526316 0) translate(-0.526316 0) translate(-0.526316 0) translate(-0.526316 0) translate(-0.526316 0) translate(-0.526316 0) translate(-0.526316 0) translate(-0.526316 0) translate(-0.526316 0) translate(-0.526316 0) translate(-0.526316 0) translate(-0.526316 0) translate(-0.526316 0) translate(-0.526316 0) translate(-0.526316 0) translate(-0.526316 0) translate(-0.526316 0) translate(-0.526316 0) translate(-0.526316 0) translate(-0.526316 0) translate(-0.526316 0) translate(-0.526316 0) translate(-0.526316 0) translate(-0.526316 0) translate(-0.526316 0) translate(-0.526316 0) translate(-0.526316 0) translate(-0.526316 0) translate(-0.526316 0) translate(-0.526316 0) translate(-0.526316 0) translate(-0.526316 0) translate(-0.526316 0) translate(-0.526316 0) translate(-0.526316 0) translate(-0.526316 0) translate(-0.526316 0) translate(-0.526316 0) translate(-0.526316 0) translate(-0.526316 0) translate(-0.526316 0) translate(-0.526316 0) translate(-0.526316 0) translate(-0.526316 0) translate(-0.526316 0) translate(-0.526316 0) translate(-0.526316 0) translate(-0.526316 0) translate(-0.526316 0) translate(-0.526316 0) translate(-0.526316 0) translate(-0.526316 0) translate(-0.526316 0) translate(-0.526316 0) translate(-0.526316 0) translate(-0.526316 0) translate(-0.526316 0) translate(-0.526316 0) translate(-0.526316 0) translate(-0.526316 0) translate(-0.526316 0) translate(-0.526316 0) translate(-0.526316 0) translate(-0.526316 0) translate(-0.526316 0) translate(-0.526316 0) translate(-0.526316 0) translate(-0.526316 0) translate(-0.526316 0) translate(-0.526316 0) translate(-0.526316 0) translate(-0.526316 0) translate(-0.526316 0) translate(-0.526316 0) translate(-0.526316 0) translate(-0.526316 0) translate(-0.526316 0) translate(-0.526316 0) translate(-0.526316 0) translate(-0.526316 0) translate(-0.526316 0) translate(-0.526316 0) translate(-0.526316 0) translate(-0.526316 0) translate(-0.526316 0) translate(-0.526316 0) translate(-0.526316 0) translate(-0.526316 0) translate(-0.526316 0) translate(-0.526316 0) translate(-0.526316 0) translate(-0.526316 0) translate(-0.526316 0) translate(-0.526316 0) translate(-0.526316 0) translate(-0.526316 0) translate(-0.526316 0) translate(-0.526316 0) translate(-0.526316 0) translate(-0.526316 0) translate(-0.526316 0) translate(-0.526316 0) translate(-0.526316 0) translate(-0.526316 0) translate(-0.526316 0) translate(-0.526316 0) translate(-0.526316 0) translate(-0.526316 0) translate(-0.526316 0) translate(-0.526316 0) translate(-0.526316 0) translate(-0.526316 0) translate(-0.526316 0) translate(-0.526316 0) translate(-0.526316 0) translate(-0.526316 0) translate(-0.526316 0) translate(-0.526316 0) translate(-0.526316 0) translate(-0.526316 0) translate(-0.526316 0) translate(-0.526316 0) translate(-0.526316 0) translate(-0.526316 0) translate(-0.526316 0) translate(-0.526316 0) translate(-0.526316 0) translate(-0.526316 0) translate(-0.526316 0) translate(-0.526316 0) translate(-0.526316 0) translate(-0.526316 0) translate(-0.526316 0) translate(-0.526316 0) translate(-0.526316 0) translate(-0.526316 0) translate(-0.526316 0) translate(-0.526316 0) translate(-0.526316 0) translate(-0.526316 0) translate(-0.526316 0) translate(-0.526316 0) translate(-0.526316 0) translate(-0.526316 0) translate(-0.526316 0) translate(-0.526316 0) translate(-0.526316 0) translate(-0.526316 0) translate(-0.526316 0) translate(-0.526316 0) translate(-0.526316 0) translate(-0.526316 0) translate(-0.526316 0) translate(-0.526316 0) translate(-1 0) translate(-1 0) translate(-1 0) translate(-1 0) translate(-1 0) translate(-1 0) translate(-1 0) translate(-1 0) translate(-1 0) translate(-1 0) translate(-1 0) translate(-1 0) translate(-1 0) translate(-1 0) translate(-1 0) translate(-1 0) translate(-1 0) translate(-1 0) translate(-1 0) translate(-1 0) translate(-1 0) translate(-1 0) matrix(1 0 0 1 157 19)">
    <rect fill="rgb(238, 237, 254)" height="40" id="svg_25" rx="8" stroke="rgb(83, 74, 183)" stroke-width="1px" width="100" x="190" y="44"/>
    <text dominant-baseline="central" fill="rgb(60, 52, 137)" font-family="&quot;Anthropic Sans&quot;, -apple-system, BlinkMacSystemFont, &quot;Segoe UI&quot;, sans-serif" font-size="14" font-weight="500" id="svg_26" stroke-width="1px" text-anchor="middle" x="240" y="62">Service</text>
   </g>
   <line fill="rgb(0, 0, 0)" id="svg_33" marker-end="url(#arrow)" stroke="rgb(61, 61, 58)" stroke-width="1.5px" x1="276.53" x2="276.53" y1="103.37" y2="220"/>
  </g>
  <g id="svg_106">
   <line fill="rgb(0, 0, 0)" id="svg_99" marker-end="url(#arrow)" stroke="rgb(61, 61, 58)" stroke-width="1.5px" transform="matrix(1 0 0 1 -53.1579 0)" x1="218.76" x2="218.76" y1="104.37" y2="298"/>
   <g id="svg_105" transform="matrix(1 0 0 1 0 0)">
    <rect fill="rgb(238, 237, 254)" height="40" id="svg_97" rx="8" stroke="rgb(83, 74, 183)" stroke-width="1px" transform="matrix(1.00368 0 0 1 -78.6211 20)" width="100" x="193.67" y="44"/>
    <text dominant-baseline="central" fill="rgb(60, 52, 137)" font-family="&quot;Anthropic Sans&quot;, -apple-system, BlinkMacSystemFont, &quot;Segoe UI&quot;, sans-serif" font-size="14" font-weight="500" id="svg_98" stroke-width="1px" text-anchor="middle" transform="matrix(1 0 0 1 -87.7368 20)" x="252.95" y="62">Types</text>
   </g>
  </g>
 </g>
</svg>